<svg id="svg" version="1.1" xmlns="http://www.w3.org/2000/svg" xmlns:xlink="http://www.w3.org/1999/xlink" width="400" height="400" viewBox="0, 0, 400,400"><g id="svgg"><path id="path0" d="M82.600 1.558 C 42.594 15.545,15.247 42.787,1.799 82.046 L 0.000 87.299 0.000 200.000 L 0.000 312.701 1.772 317.874 C 15.272 357.289,42.777 384.699,82.739 398.564 L 86.877 400.000 200.000 400.000 L 313.123 400.000 317.261 398.564 C 357.263 384.685,384.045 358.081,398.209 318.154 L 400.000 313.104 400.000 200.117 L 400.000 87.130 398.454 82.665 C 384.522 42.440,358.325 16.188,317.527 1.574 L 313.134 0.000 200.067 0.010 L 87.000 0.020 82.600 1.558 M186.200 101.421 C 189.504 103.116,189.800 104.429,189.800 117.400 C 189.800 134.702,190.400 134.102,172.800 134.400 C 158.785 134.638,158.060 134.818,156.224 138.503 L 155.200 140.557 155.192 177.779 C 155.184 216.094,155.072 219.132,153.600 221.201 C 151.776 223.762,151.539 223.800,137.400 223.800 C 121.451 223.800,120.829 223.567,119.956 217.270 C 119.151 211.457,119.699 106.430,120.545 104.495 C 122.352 100.364,121.583 100.451,155.400 100.531 C 183.992 100.599,184.633 100.617,186.200 101.421 M137.698 112.381 C 135.765 112.854,133.696 114.416,132.902 116.000 C 132.050 117.699,131.588 202.337,132.410 206.195 C 133.539 211.498,139.073 212.758,141.630 208.294 L 142.600 206.600 142.800 167.400 C 142.985 131.190,143.053 128.108,143.692 127.000 C 145.954 123.076,146.058 123.049,160.200 122.800 C 170.292 122.622,172.391 122.484,173.400 121.932 C 177.699 119.581,177.699 115.234,173.400 112.862 C 172.079 112.133,140.447 111.707,137.698 112.381 M274.889 176.689 C 279.445 178.755,279.249 175.851,279.114 239.400 C 278.988 299.295,279.172 295.401,276.356 297.681 C 274.037 299.557,272.607 299.635,242.528 299.513 L 214.578 299.400 212.626 298.395 C 209.081 296.570,209.000 296.210,209.000 282.171 L 209.000 270.141 210.127 268.439 C 212.026 265.569,212.552 265.463,226.200 265.207 C 238.949 264.968,239.080 264.947,241.309 262.867 C 243.633 260.700,243.599 261.320,243.610 220.427 C 243.620 178.209,243.516 179.591,246.870 177.088 C 249.215 175.337,271.219 175.024,274.889 176.689 M258.919 189.584 C 256.032 191.344,256.223 188.581,256.000 232.000 L 255.800 271.000 254.900 272.826 C 253.137 276.404,252.480 276.566,238.800 276.812 C 224.122 277.075,221.996 277.767,222.001 282.274 C 222.008 287.375,225.294 288.140,246.268 287.919 C 264.233 287.729,265.179 287.438,266.356 281.746 C 267.344 276.971,266.789 194.208,265.754 191.971 C 264.404 189.053,261.470 188.028,258.919 189.584 " stroke="none" fill="#ffffff" fill-rule="evenodd"></path><path id="path1" d="M124.815 100.865 C 122.705 101.478,121.367 102.615,120.545 104.495 C 119.699 106.430,119.151 211.457,119.956 217.270 C 120.829 223.567,121.451 223.800,137.400 223.800 C 151.539 223.800,151.776 223.762,153.600 221.201 C 155.072 219.132,155.184 216.094,155.192 177.779 L 155.200 140.557 156.224 138.503 C 158.060 134.818,158.785 134.638,172.800 134.400 C 190.400 134.102,189.800 134.702,189.800 117.400 C 189.800 104.429,189.504 103.116,186.200 101.421 C 184.378 100.486,127.879 99.974,124.815 100.865 M173.400 112.862 C 177.699 115.234,177.699 119.581,173.400 121.932 C 172.391 122.484,170.292 122.622,160.200 122.800 C 146.058 123.049,145.954 123.076,143.692 127.000 C 143.053 128.108,142.985 131.190,142.800 167.400 L 142.600 206.600 141.630 208.294 C 139.073 212.758,133.539 211.498,132.410 206.195 C 131.588 202.337,132.050 117.699,132.902 116.000 C 133.696 114.416,135.765 112.854,137.698 112.381 C 140.447 111.707,172.079 112.133,173.400 112.862 M250.045 175.992 C 246.796 176.496,244.689 178.386,243.983 181.431 C 243.779 182.312,243.615 199.406,243.610 220.427 C 243.599 261.320,243.633 260.700,241.309 262.867 C 239.080 264.947,238.949 264.968,226.200 265.207 C 212.552 265.463,212.026 265.569,210.127 268.439 L 209.000 270.141 209.000 282.171 C 209.000 296.210,209.081 296.570,212.626 298.395 L 214.578 299.400 242.528 299.513 C 272.607 299.635,274.037 299.557,276.356 297.681 C 279.172 295.401,278.988 299.295,279.114 239.400 C 279.249 175.851,279.445 178.755,274.889 176.689 C 272.817 175.749,254.861 175.245,250.045 175.992 M263.494 189.471 C 266.781 191.031,266.584 188.157,266.721 236.600 C 266.864 287.213,267.057 285.006,262.301 287.040 C 258.554 288.642,227.073 288.257,224.509 286.577 C 222.407 285.200,221.434 282.205,222.463 280.282 C 224.061 277.296,225.189 277.056,238.800 276.812 C 252.480 276.566,253.137 276.404,254.900 272.826 L 255.800 271.000 256.000 232.000 C 256.223 188.581,256.032 191.344,258.919 189.584 C 260.491 188.626,261.652 188.597,263.494 189.471 " stroke="none" fill="#9cbcdc" fill-rule="evenodd"></path></g></svg>