<svg id="svg" version="1.1" xmlns="http://www.w3.org/2000/svg" xmlns:xlink="http://www.w3.org/1999/xlink" width="400" height="400" viewBox="0, 0, 400,400"><g id="svgg"><path id="path0" d="M95.820 76.051 C 94.045 76.466,92.982 77.288,92.159 78.879 C 91.200 80.735,91.338 230.072,92.301 232.000 C 93.744 234.888,92.827 234.799,120.913 234.799 C 148.623 234.800,148.102 234.845,149.473 232.332 C 150.161 231.072,150.211 228.432,150.400 183.600 C 150.623 130.830,150.423 134.326,153.306 132.582 C 154.519 131.849,155.630 131.787,171.072 131.600 C 193.875 131.323,191.364 134.577,191.516 105.111 C 191.659 77.374,191.622 77.141,186.800 76.033 C 184.491 75.503,98.088 75.519,95.820 76.051 M165.871 98.228 C 169.414 100.828,169.193 107.471,165.496 109.492 C 164.335 110.126,162.510 110.221,147.981 110.400 C 130.209 110.619,130.555 110.570,128.906 113.088 C 128.244 114.097,128.187 117.150,128.000 161.582 C 127.803 208.371,127.789 209.018,126.986 210.386 C 124.928 213.888,118.988 214.474,115.717 211.496 C 114.005 209.938,113.980 209.045,114.093 154.000 C 114.214 94.637,113.932 99.526,117.327 97.971 C 120.015 96.739,164.161 96.973,165.871 98.228 M252.350 166.002 C 249.437 167.541,249.600 164.573,249.600 215.988 C 249.600 264.857,249.591 265.094,247.678 266.923 C 245.930 268.594,243.996 268.780,228.200 268.791 C 206.645 268.806,209.000 265.394,209.000 296.600 C 209.000 323.747,208.811 322.059,212.028 323.699 C 214.149 324.781,303.454 324.781,305.566 323.699 C 308.658 322.116,308.400 329.312,308.400 244.800 C 308.400 160.288,308.658 167.484,305.566 165.901 C 303.363 164.773,254.500 164.865,252.350 166.002 M283.241 187.715 C 285.988 189.564,285.800 185.349,285.800 245.000 C 285.800 305.969,286.077 300.877,282.673 302.423 C 280.191 303.550,237.024 303.619,234.828 302.499 C 230.672 300.380,230.409 293.333,234.400 291.014 C 235.728 290.242,236.633 290.190,252.000 290.000 C 269.099 289.789,268.924 289.809,270.800 287.805 L 271.800 286.736 272.000 239.068 C 272.225 185.383,271.994 189.102,275.200 187.501 C 277.336 186.434,281.502 186.545,283.241 187.715 " stroke="none" fill="#9cbcdc" fill-rule="evenodd"></path><path id="path1" d="M89.600 1.447 C 45.080 15.095,17.427 42.305,2.046 87.600 L 0.212 93.000 0.102 199.258 L -0.007 305.516 1.632 310.858 C 15.201 355.087,43.413 383.627,87.727 397.954 L 94.055 400.000 199.886 400.000 L 305.718 400.000 310.474 398.578 C 354.176 385.512,382.840 357.468,397.703 313.241 L 399.800 307.000 399.903 200.733 L 400.006 94.466 398.574 89.733 C 384.941 44.685,355.309 15.051,310.277 1.429 L 305.554 0.000 199.877 0.018 L 94.200 0.037 89.600 1.447 M186.800 76.033 C 191.622 77.141,191.659 77.374,191.516 105.111 C 191.364 134.577,193.875 131.323,171.072 131.600 C 155.630 131.787,154.519 131.849,153.306 132.582 C 150.423 134.326,150.623 130.830,150.400 183.600 C 150.211 228.432,150.161 231.072,149.473 232.332 C 148.102 234.845,148.623 234.800,120.913 234.799 C 92.827 234.799,93.744 234.888,92.301 232.000 C 91.338 230.072,91.200 80.735,92.159 78.879 C 92.982 77.288,94.045 76.466,95.820 76.051 C 98.088 75.519,184.491 75.503,186.800 76.033 M117.327 97.971 C 113.932 99.526,114.214 94.637,114.093 154.000 C 113.980 209.045,114.005 209.938,115.717 211.496 C 118.988 214.474,124.928 213.888,126.986 210.386 C 127.789 209.018,127.803 208.371,128.000 161.582 C 128.187 117.150,128.244 114.097,128.906 113.088 C 130.555 110.570,130.209 110.619,147.981 110.400 C 162.510 110.221,164.335 110.126,165.496 109.492 C 169.193 107.471,169.414 100.828,165.871 98.228 C 164.161 96.973,120.015 96.739,117.327 97.971 M305.566 165.901 C 308.658 167.484,308.400 160.288,308.400 244.800 C 308.400 329.312,308.658 322.116,305.566 323.699 C 303.454 324.781,214.149 324.781,212.028 323.699 C 208.811 322.059,209.000 323.747,209.000 296.600 C 209.000 265.394,206.645 268.806,228.200 268.791 C 243.996 268.780,245.930 268.594,247.678 266.923 C 249.591 265.094,249.600 264.857,249.600 215.988 C 249.600 164.573,249.437 167.541,252.350 166.002 C 254.500 164.865,303.363 164.773,305.566 165.901 M275.200 187.501 C 271.994 189.102,272.225 185.383,272.000 239.068 L 271.800 286.736 270.800 287.805 C 268.924 289.809,269.099 289.789,252.000 290.000 C 231.977 290.247,231.325 290.475,231.697 297.096 C 232.046 303.302,231.597 303.200,258.600 303.191 C 283.731 303.181,283.505 303.206,285.073 300.331 C 286.095 298.459,286.217 191.824,285.200 189.815 C 283.750 186.952,278.658 185.773,275.200 187.501 " stroke="none" fill="#ffffff" fill-rule="evenodd"></path></g></svg>